<svg xmlns="http://www.w3.org/2000/svg" width="180" height="180" stroke="#000" stroke-linecap="round" stroke-linejoin="round" fill="none" fill-rule="evenodd" stroke-width="7"><path d="M52 44.5c1.7425 33.3086 13.2575 31.6914 15 65"/><path d="M74.5 82C66.4598 61.4418 60.0402 65.0582 52 44.5M32 77c14.777 39.4759 27.723 33.0241 42.5 72.5"/><path d="M32 77c7.9659 5.2125 7.5 7.5 17.5 7.5M97 87c10.5922-2.1736 9.4078-5.3263 20-7.5m-2.4999 45c5.1381-21.9411-37.5001 0 2.5-45M109.5 103.9476c3.2716-5.5025 6.5431-11.005 12.0855-12.9012s13.3552-.1859 15.1552 4.5079-2.4132 12.371-6.5558 13.7212-8.215-3.6267-12.2873-8.6036M102 44.5c-29.857 50.3682 2.357 54.6318-27.5 105"/><path d="M74.5 82c7.7083-15.625 5.4167-16.2497 10-22.4997S100.5417 41.375 102 44.5"/></svg>